<?xml version="1.0" encoding="UTF-8" standalone="no"?>
<!DOCTYPE svg PUBLIC "-//W3C//DTD SVG 1.1//EN"
 "http://www.w3.org/Graphics/SVG/1.1/DTD/svg11.dtd">
<!-- Generated by graphviz version 14.1.2 (0)
 -->
<!-- Title: snakemake_dag Pages: 1 -->
<svg width="560pt" height="332pt"
 viewBox="0.00 0.00 560.00 332.00" xmlns="http://www.w3.org/2000/svg" xmlns:xlink="http://www.w3.org/1999/xlink">
<g id="graph0" class="graph" transform="scale(1 1) rotate(0) translate(4 328)">
<title>snakemake_dag</title>
<polygon fill="white" stroke="none" points="-4,4 -4,-328 555.96,-328 555.96,4 -4,4"/>
<!-- 0 -->
<g id="node1" class="node">
<title>0</title>
<path fill="none" stroke="#d85656" stroke-width="2" d="M265.08,-36C265.08,-36 235.08,-36 235.08,-36 229.08,-36 223.08,-30 223.08,-24 223.08,-24 223.08,-12 223.08,-12 223.08,-6 229.08,0 235.08,0 235.08,0 265.08,0 265.08,0 271.08,0 277.08,-6 277.08,-12 277.08,-12 277.08,-24 277.08,-24 277.08,-30 271.08,-36 265.08,-36"/>
<text xml:space="preserve" text-anchor="middle" x="250.08" y="-14.12" font-family="sans" font-size="10.00">all</text>
</g>
<!-- 1 -->
<g id="node2" class="node">
<title>1</title>
<path fill="none" stroke="#c6d856" stroke-width="2" d="M271.21,-108C271.21,-108 228.96,-108 228.96,-108 222.96,-108 216.96,-102 216.96,-96 216.96,-96 216.96,-84 216.96,-84 216.96,-78 222.96,-72 228.96,-72 228.96,-72 271.21,-72 271.21,-72 277.21,-72 283.21,-78 283.21,-84 283.21,-84 283.21,-96 283.21,-96 283.21,-102 277.21,-108 271.21,-108"/>
<text xml:space="preserve" text-anchor="middle" x="250.08" y="-86.12" font-family="sans" font-size="10.00">plot_results</text>
</g>
<!-- 1&#45;&gt;0 -->
<g id="edge1" class="edge">
<title>1&#45;&gt;0</title>
<path fill="none" stroke="grey" stroke-width="2" d="M250.08,-71.34C250.08,-64.75 250.08,-57.08 250.08,-49.67"/>
<polygon fill="grey" stroke="grey" stroke-width="2" points="253.58,-49.93 250.08,-39.93 246.58,-49.93 253.58,-49.93"/>
</g>
<!-- 2 -->
<g id="node3" class="node">
<title>2</title>
<path fill="none" stroke="#56a2d8" stroke-width="2" d="M243.58,-180C243.58,-180 188.58,-180 188.58,-180 182.58,-180 176.58,-174 176.58,-168 176.58,-168 176.58,-156 176.58,-156 176.58,-150 182.58,-144 188.58,-144 188.58,-144 243.58,-144 243.58,-144 249.58,-144 255.58,-150 255.58,-156 255.58,-156 255.58,-168 255.58,-168 255.58,-174 249.58,-180 243.58,-180"/>
<text xml:space="preserve" text-anchor="middle" x="216.08" y="-158.12" font-family="sans" font-size="10.00">solve_network</text>
</g>
<!-- 2&#45;&gt;1 -->
<g id="edge2" class="edge">
<title>2&#45;&gt;1</title>
<path fill="none" stroke="grey" stroke-width="2" d="M224.66,-143.34C228.02,-136.43 231.96,-128.31 235.73,-120.56"/>
<polygon fill="grey" stroke="grey" stroke-width="2" points="238.84,-122.15 240.06,-111.62 232.55,-119.09 238.84,-122.15"/>
</g>
<!-- 3 -->
<g id="node4" class="node">
<title>3</title>
<path fill="none" stroke="#d8a456" stroke-width="2" stroke-dasharray="5,2" d="M539.96,-252C539.96,-252 28.21,-252 28.21,-252 22.21,-252 16.21,-246 16.21,-240 16.21,-240 16.21,-228 16.21,-228 16.21,-222 22.21,-216 28.21,-216 28.21,-216 539.96,-216 539.96,-216 545.96,-216 551.96,-222 551.96,-228 551.96,-228 551.96,-240 551.96,-240 551.96,-246 545.96,-252 539.96,-252"/>
<text xml:space="preserve" text-anchor="middle" x="284.08" y="-235.75" font-family="sans" font-size="10.00">build_network</text>
<text xml:space="preserve" text-anchor="middle" x="284.08" y="-224.5" font-family="sans" font-size="10.00">network: B_H_RE_H2_MEOH_METH_SN_ST_CO2_100_tP_H2_90_MeOH_110_CH4_200_2024_El_0.1_DET_default</text>
</g>
<!-- 3&#45;&gt;1 -->
<g id="edge3" class="edge">
<title>3&#45;&gt;1</title>
<path fill="none" stroke="grey" stroke-width="2" d="M280.64,-215.19C277.07,-197.17 271.17,-168.54 265.08,-144 263.22,-136.48 261.03,-128.42 258.91,-120.9"/>
<polygon fill="grey" stroke="grey" stroke-width="2" points="262.34,-120.14 256.21,-111.5 255.61,-122.08 262.34,-120.14"/>
</g>
<!-- 3&#45;&gt;2 -->
<g id="edge4" class="edge">
<title>3&#45;&gt;2</title>
<path fill="none" stroke="grey" stroke-width="2" d="M266.92,-215.34C259.49,-207.69 250.62,-198.56 242.39,-190.08"/>
<polygon fill="grey" stroke="grey" stroke-width="2" points="245.06,-187.81 235.58,-183.07 240.04,-192.68 245.06,-187.81"/>
</g>
<!-- 4 -->
<g id="node5" class="node">
<title>4</title>
<path fill="none" stroke="#56d8c9" stroke-width="2" stroke-dasharray="5,2" d="M172.21,-324C172.21,-324 99.96,-324 99.96,-324 93.96,-324 87.96,-318 87.96,-312 87.96,-312 87.96,-300 87.96,-300 87.96,-294 93.96,-288 99.96,-288 99.96,-288 172.21,-288 172.21,-288 178.21,-288 184.21,-294 184.21,-300 184.21,-300 184.21,-312 184.21,-312 184.21,-318 178.21,-324 172.21,-324"/>
<text xml:space="preserve" text-anchor="middle" x="136.08" y="-302.12" font-family="sans" font-size="10.00">retrieve_tech_data</text>
</g>
<!-- 4&#45;&gt;2 -->
<g id="edge5" class="edge">
<title>4&#45;&gt;2</title>
<path fill="none" stroke="grey" stroke-width="2" d="M87.13,-298.43C58.62,-291.81 24.88,-278.55 7.08,-252 -1.83,-238.71 -2.74,-228.63 7.08,-216 26.08,-191.59 107.64,-176.61 163.07,-169.06"/>
<polygon fill="grey" stroke="grey" stroke-width="2" points="163.4,-172.54 172.86,-167.77 162.49,-165.6 163.4,-172.54"/>
</g>
<!-- 4&#45;&gt;3 -->
<g id="edge6" class="edge">
<title>4&#45;&gt;3</title>
<path fill="none" stroke="grey" stroke-width="2" d="M173.81,-287.15C192.27,-278.43 214.72,-267.81 234.54,-258.43"/>
<polygon fill="grey" stroke="grey" stroke-width="2" points="235.88,-261.67 243.43,-254.23 232.89,-255.34 235.88,-261.67"/>
</g>
</g>
</svg>
